<mxfile host="Electron" modified="2024-02-04T14:20:12.216Z" agent="Mozilla/5.0 (Windows NT 10.0; Win64; x64) AppleWebKit/537.36 (KHTML, like Gecko) draw.io/23.0.2 Chrome/120.0.6099.109 Electron/28.1.0 Safari/537.36" etag="6CigUepfoiiayETIFzTz" version="23.0.2" type="device">
  <diagram name="Page-1" id="156cPFxcDULmJlTBI4Er">
    <mxGraphModel dx="1886" dy="606" grid="1" gridSize="10" guides="1" tooltips="1" connect="1" arrows="1" fold="1" page="1" pageScale="1" pageWidth="850" pageHeight="1100" math="0" shadow="0">
      <root>
        <mxCell id="0" />
        <mxCell id="1" parent="0" />
        <mxCell id="GzMFzEBqRGCAGZ1tQhx--2" value="Profile" style="whiteSpace=wrap;html=1;align=center;" parent="1" vertex="1">
          <mxGeometry x="50" y="80" width="100" height="40" as="geometry" />
        </mxCell>
        <mxCell id="GzMFzEBqRGCAGZ1tQhx--3" value="Movies" style="whiteSpace=wrap;html=1;align=center;" parent="1" vertex="1">
          <mxGeometry x="480" y="410" width="100" height="40" as="geometry" />
        </mxCell>
        <mxCell id="GzMFzEBqRGCAGZ1tQhx--4" value="Review" style="whiteSpace=wrap;html=1;align=center;" parent="1" vertex="1">
          <mxGeometry x="480" y="80" width="100" height="40" as="geometry" />
        </mxCell>
        <mxCell id="QTRpwio6Mx733VvLpQi0-1" value="" style="endArrow=none;html=1;rounded=0;entryX=0.5;entryY=1;entryDx=0;entryDy=0;" parent="1" target="GzMFzEBqRGCAGZ1tQhx--2" edge="1">
          <mxGeometry width="50" height="50" relative="1" as="geometry">
            <mxPoint x="100" y="390" as="sourcePoint" />
            <mxPoint x="180" y="290" as="targetPoint" />
          </mxGeometry>
        </mxCell>
        <mxCell id="QTRpwio6Mx733VvLpQi0-3" value="" style="endArrow=none;html=1;rounded=0;entryX=0;entryY=0.5;entryDx=0;entryDy=0;" parent="1" target="GzMFzEBqRGCAGZ1tQhx--3" edge="1">
          <mxGeometry relative="1" as="geometry">
            <mxPoint x="160" y="419.5" as="sourcePoint" />
            <mxPoint x="320" y="419.5" as="targetPoint" />
          </mxGeometry>
        </mxCell>
        <mxCell id="QTRpwio6Mx733VvLpQi0-4" value="Sypnosis" style="ellipse;whiteSpace=wrap;html=1;align=center;" parent="1" vertex="1">
          <mxGeometry x="370" y="520" width="100" height="40" as="geometry" />
        </mxCell>
        <mxCell id="QTRpwio6Mx733VvLpQi0-5" value="Rating" style="ellipse;whiteSpace=wrap;html=1;align=center;" parent="1" vertex="1">
          <mxGeometry x="520" y="580" width="100" height="40" as="geometry" />
        </mxCell>
        <mxCell id="QTRpwio6Mx733VvLpQi0-6" value="Title" style="ellipse;whiteSpace=wrap;html=1;align=center;" parent="1" vertex="1">
          <mxGeometry x="445" y="550" width="100" height="40" as="geometry" />
        </mxCell>
        <mxCell id="QTRpwio6Mx733VvLpQi0-8" value="Genre" style="ellipse;whiteSpace=wrap;html=1;align=center;" parent="1" vertex="1">
          <mxGeometry x="270" y="450" width="100" height="40" as="geometry" />
        </mxCell>
        <mxCell id="QTRpwio6Mx733VvLpQi0-9" value="ID" style="ellipse;whiteSpace=wrap;html=1;align=center;fontStyle=4;" parent="1" vertex="1">
          <mxGeometry x="300" y="490" width="100" height="40" as="geometry" />
        </mxCell>
        <mxCell id="QTRpwio6Mx733VvLpQi0-17" value="Actor" style="whiteSpace=wrap;html=1;align=center;" parent="1" vertex="1">
          <mxGeometry x="730" y="240" width="100" height="40" as="geometry" />
        </mxCell>
        <mxCell id="QTRpwio6Mx733VvLpQi0-18" value="" style="endArrow=none;html=1;rounded=0;entryX=0.25;entryY=1;entryDx=0;entryDy=0;exitX=1;exitY=0;exitDx=0;exitDy=0;" parent="1" source="GzMFzEBqRGCAGZ1tQhx--3" target="QTRpwio6Mx733VvLpQi0-17" edge="1">
          <mxGeometry relative="1" as="geometry">
            <mxPoint x="390" y="310" as="sourcePoint" />
            <mxPoint x="550" y="310" as="targetPoint" />
          </mxGeometry>
        </mxCell>
        <mxCell id="QTRpwio6Mx733VvLpQi0-19" value="" style="endArrow=none;html=1;rounded=0;exitX=1;exitY=0.5;exitDx=0;exitDy=0;entryX=0;entryY=0.5;entryDx=0;entryDy=0;" parent="1" source="GzMFzEBqRGCAGZ1tQhx--2" target="GzMFzEBqRGCAGZ1tQhx--4" edge="1">
          <mxGeometry relative="1" as="geometry">
            <mxPoint x="390" y="310" as="sourcePoint" />
            <mxPoint x="550" y="310" as="targetPoint" />
          </mxGeometry>
        </mxCell>
        <mxCell id="QTRpwio6Mx733VvLpQi0-20" value="1" style="text;html=1;align=center;verticalAlign=middle;resizable=0;points=[];autosize=1;strokeColor=none;fillColor=none;" parent="1" vertex="1">
          <mxGeometry x="145" y="68" width="30" height="30" as="geometry" />
        </mxCell>
        <mxCell id="QTRpwio6Mx733VvLpQi0-21" value="M" style="text;html=1;align=center;verticalAlign=middle;resizable=0;points=[];autosize=1;strokeColor=none;fillColor=none;" parent="1" vertex="1">
          <mxGeometry x="455" y="68" width="30" height="30" as="geometry" />
        </mxCell>
        <mxCell id="QTRpwio6Mx733VvLpQi0-22" value="&amp;nbsp;M" style="text;html=1;align=center;verticalAlign=middle;resizable=0;points=[];autosize=1;strokeColor=none;fillColor=none;" parent="1" vertex="1">
          <mxGeometry x="700" y="270" width="40" height="30" as="geometry" />
        </mxCell>
        <mxCell id="QTRpwio6Mx733VvLpQi0-23" value="N" style="text;html=1;align=center;verticalAlign=middle;resizable=0;points=[];autosize=1;strokeColor=none;fillColor=none;" parent="1" vertex="1">
          <mxGeometry x="560" y="380" width="30" height="30" as="geometry" />
        </mxCell>
        <mxCell id="QTRpwio6Mx733VvLpQi0-25" value="Director" style="whiteSpace=wrap;html=1;align=center;" parent="1" vertex="1">
          <mxGeometry x="880" y="410" width="100" height="40" as="geometry" />
        </mxCell>
        <mxCell id="QTRpwio6Mx733VvLpQi0-26" value="" style="endArrow=none;html=1;rounded=0;entryX=0;entryY=0.5;entryDx=0;entryDy=0;exitX=1;exitY=0.5;exitDx=0;exitDy=0;" parent="1" source="wVPFlrEbLYKzu8900fMo-20" target="QTRpwio6Mx733VvLpQi0-25" edge="1">
          <mxGeometry relative="1" as="geometry">
            <mxPoint x="390" y="310" as="sourcePoint" />
            <mxPoint x="550" y="310" as="targetPoint" />
          </mxGeometry>
        </mxCell>
        <mxCell id="QTRpwio6Mx733VvLpQi0-27" value="M" style="text;html=1;align=center;verticalAlign=middle;resizable=0;points=[];autosize=1;strokeColor=none;fillColor=none;" parent="1" vertex="1">
          <mxGeometry x="580" y="430" width="30" height="30" as="geometry" />
        </mxCell>
        <mxCell id="QTRpwio6Mx733VvLpQi0-28" value="N" style="text;html=1;align=center;verticalAlign=middle;resizable=0;points=[];autosize=1;strokeColor=none;fillColor=none;" parent="1" vertex="1">
          <mxGeometry x="855" y="408" width="30" height="30" as="geometry" />
        </mxCell>
        <mxCell id="QTRpwio6Mx733VvLpQi0-29" value="M" style="text;html=1;align=center;verticalAlign=middle;resizable=0;points=[];autosize=1;strokeColor=none;fillColor=none;" parent="1" vertex="1">
          <mxGeometry x="105" y="118" width="30" height="30" as="geometry" />
        </mxCell>
        <mxCell id="QTRpwio6Mx733VvLpQi0-30" value="N" style="text;html=1;align=center;verticalAlign=middle;resizable=0;points=[];autosize=1;strokeColor=none;fillColor=none;" parent="1" vertex="1">
          <mxGeometry x="445" y="398" width="30" height="30" as="geometry" />
        </mxCell>
        <mxCell id="QTRpwio6Mx733VvLpQi0-31" value="Rating" style="ellipse;whiteSpace=wrap;html=1;align=center;" parent="1" vertex="1">
          <mxGeometry x="570" y="10" width="100" height="40" as="geometry" />
        </mxCell>
        <mxCell id="QTRpwio6Mx733VvLpQi0-32" value="Comment" style="ellipse;whiteSpace=wrap;html=1;align=center;" parent="1" vertex="1">
          <mxGeometry x="460" y="10" width="100" height="40" as="geometry" />
        </mxCell>
        <mxCell id="QTRpwio6Mx733VvLpQi0-33" value="" style="endArrow=none;html=1;rounded=0;exitX=0.5;exitY=1;exitDx=0;exitDy=0;entryX=0.5;entryY=0;entryDx=0;entryDy=0;" parent="1" source="QTRpwio6Mx733VvLpQi0-32" target="GzMFzEBqRGCAGZ1tQhx--4" edge="1">
          <mxGeometry relative="1" as="geometry">
            <mxPoint x="390" y="310" as="sourcePoint" />
            <mxPoint x="550" y="310" as="targetPoint" />
          </mxGeometry>
        </mxCell>
        <mxCell id="QTRpwio6Mx733VvLpQi0-34" value="" style="endArrow=none;html=1;rounded=0;exitX=0;exitY=1;exitDx=0;exitDy=0;" parent="1" source="QTRpwio6Mx733VvLpQi0-31" edge="1">
          <mxGeometry relative="1" as="geometry">
            <mxPoint x="520" y="60" as="sourcePoint" />
            <mxPoint x="530" y="80" as="targetPoint" />
          </mxGeometry>
        </mxCell>
        <mxCell id="QTRpwio6Mx733VvLpQi0-35" value="" style="endArrow=none;html=1;rounded=0;exitX=0.5;exitY=1;exitDx=0;exitDy=0;entryX=0.5;entryY=0;entryDx=0;entryDy=0;" parent="1" source="GzMFzEBqRGCAGZ1tQhx--4" target="GzMFzEBqRGCAGZ1tQhx--3" edge="1">
          <mxGeometry relative="1" as="geometry">
            <mxPoint x="390" y="250" as="sourcePoint" />
            <mxPoint x="550" y="250" as="targetPoint" />
          </mxGeometry>
        </mxCell>
        <mxCell id="QTRpwio6Mx733VvLpQi0-36" value="M" style="text;html=1;align=center;verticalAlign=middle;resizable=0;points=[];autosize=1;strokeColor=none;fillColor=none;" parent="1" vertex="1">
          <mxGeometry x="495" y="120" width="30" height="30" as="geometry" />
        </mxCell>
        <mxCell id="QTRpwio6Mx733VvLpQi0-37" value="1" style="text;html=1;align=center;verticalAlign=middle;resizable=0;points=[];autosize=1;strokeColor=none;fillColor=none;" parent="1" vertex="1">
          <mxGeometry x="505" y="378" width="30" height="30" as="geometry" />
        </mxCell>
        <mxCell id="QTRpwio6Mx733VvLpQi0-39" value="ID" style="ellipse;whiteSpace=wrap;html=1;align=center;fontStyle=4;" parent="1" vertex="1">
          <mxGeometry x="770" y="160" width="100" height="40" as="geometry" />
        </mxCell>
        <mxCell id="QTRpwio6Mx733VvLpQi0-40" value="ID" style="ellipse;whiteSpace=wrap;html=1;align=center;fontStyle=4;" parent="1" vertex="1">
          <mxGeometry x="950" y="370" width="100" height="40" as="geometry" />
        </mxCell>
        <mxCell id="wVPFlrEbLYKzu8900fMo-1" value="ID" style="ellipse;whiteSpace=wrap;html=1;align=center;fontStyle=4;" vertex="1" parent="1">
          <mxGeometry x="175" y="40" width="100" height="40" as="geometry" />
        </mxCell>
        <mxCell id="wVPFlrEbLYKzu8900fMo-7" value="" style="endArrow=none;html=1;rounded=0;exitX=0.5;exitY=1;exitDx=0;exitDy=0;entryX=0.25;entryY=0;entryDx=0;entryDy=0;" edge="1" parent="1" target="GzMFzEBqRGCAGZ1tQhx--2">
          <mxGeometry width="50" height="50" relative="1" as="geometry">
            <mxPoint x="40" y="40" as="sourcePoint" />
            <mxPoint x="270" y="90" as="targetPoint" />
          </mxGeometry>
        </mxCell>
        <mxCell id="wVPFlrEbLYKzu8900fMo-8" value="" style="endArrow=none;html=1;rounded=0;entryX=0.5;entryY=1;entryDx=0;entryDy=0;" edge="1" parent="1" source="GzMFzEBqRGCAGZ1tQhx--2">
          <mxGeometry width="50" height="50" relative="1" as="geometry">
            <mxPoint x="220" y="140" as="sourcePoint" />
            <mxPoint x="150" y="40" as="targetPoint" />
          </mxGeometry>
        </mxCell>
        <mxCell id="wVPFlrEbLYKzu8900fMo-9" value="" style="endArrow=none;html=1;rounded=0;exitX=0.75;exitY=0;exitDx=0;exitDy=0;entryX=0;entryY=0.5;entryDx=0;entryDy=0;" edge="1" parent="1" source="GzMFzEBqRGCAGZ1tQhx--2" target="wVPFlrEbLYKzu8900fMo-1">
          <mxGeometry width="50" height="50" relative="1" as="geometry">
            <mxPoint x="220" y="140" as="sourcePoint" />
            <mxPoint x="270" y="90" as="targetPoint" />
          </mxGeometry>
        </mxCell>
        <mxCell id="wVPFlrEbLYKzu8900fMo-10" value="" style="endArrow=none;html=1;rounded=0;exitX=1;exitY=0.5;exitDx=0;exitDy=0;entryX=0.25;entryY=0;entryDx=0;entryDy=0;" edge="1" parent="1" target="GzMFzEBqRGCAGZ1tQhx--2">
          <mxGeometry width="50" height="50" relative="1" as="geometry">
            <mxPoint x="20" y="70" as="sourcePoint" />
            <mxPoint x="70" y="80" as="targetPoint" />
          </mxGeometry>
        </mxCell>
        <mxCell id="wVPFlrEbLYKzu8900fMo-11" value="" style="endArrow=none;html=1;rounded=0;entryX=0;entryY=0.5;entryDx=0;entryDy=0;exitX=1;exitY=0.5;exitDx=0;exitDy=0;" edge="1" parent="1" target="GzMFzEBqRGCAGZ1tQhx--2">
          <mxGeometry width="50" height="50" relative="1" as="geometry">
            <mxPoint y="128" as="sourcePoint" />
            <mxPoint x="270" y="90" as="targetPoint" />
          </mxGeometry>
        </mxCell>
        <mxCell id="wVPFlrEbLYKzu8900fMo-12" value="" style="endArrow=none;html=1;rounded=0;entryX=0;entryY=0.5;entryDx=0;entryDy=0;exitX=1;exitY=0.5;exitDx=0;exitDy=0;" edge="1" parent="1" target="GzMFzEBqRGCAGZ1tQhx--2">
          <mxGeometry width="50" height="50" relative="1" as="geometry">
            <mxPoint x="40" y="180" as="sourcePoint" />
            <mxPoint x="270" y="90" as="targetPoint" />
          </mxGeometry>
        </mxCell>
        <mxCell id="wVPFlrEbLYKzu8900fMo-13" value="admin" style="ellipse;whiteSpace=wrap;html=1;align=center;" vertex="1" parent="1">
          <mxGeometry x="-60" y="160" width="100" height="40" as="geometry" />
        </mxCell>
        <mxCell id="wVPFlrEbLYKzu8900fMo-14" value="password" style="ellipse;whiteSpace=wrap;html=1;align=center;" vertex="1" parent="1">
          <mxGeometry x="-100" y="108" width="100" height="42" as="geometry" />
        </mxCell>
        <mxCell id="wVPFlrEbLYKzu8900fMo-15" value="lastName" style="ellipse;whiteSpace=wrap;html=1;align=center;" vertex="1" parent="1">
          <mxGeometry x="-80" y="50" width="100" height="40" as="geometry" />
        </mxCell>
        <mxCell id="wVPFlrEbLYKzu8900fMo-16" value="firstName" style="ellipse;whiteSpace=wrap;html=1;align=center;" vertex="1" parent="1">
          <mxGeometry x="-10" width="100" height="40" as="geometry" />
        </mxCell>
        <mxCell id="wVPFlrEbLYKzu8900fMo-17" value="email" style="ellipse;whiteSpace=wrap;html=1;align=center;" vertex="1" parent="1">
          <mxGeometry x="100" width="100" height="40" as="geometry" />
        </mxCell>
        <mxCell id="wVPFlrEbLYKzu8900fMo-18" value="Watchlist" style="shape=rhombus;perimeter=rhombusPerimeter;whiteSpace=wrap;html=1;align=center;" vertex="1" parent="1">
          <mxGeometry x="40" y="390" width="120" height="60" as="geometry" />
        </mxCell>
        <mxCell id="wVPFlrEbLYKzu8900fMo-19" value="Roles" style="shape=rhombus;perimeter=rhombusPerimeter;whiteSpace=wrap;html=1;align=center;" vertex="1" parent="1">
          <mxGeometry x="610" y="318" width="120" height="60" as="geometry" />
        </mxCell>
        <mxCell id="wVPFlrEbLYKzu8900fMo-21" value="" style="endArrow=none;html=1;rounded=0;entryX=0;entryY=0.5;entryDx=0;entryDy=0;exitX=1;exitY=0.5;exitDx=0;exitDy=0;" edge="1" parent="1" source="GzMFzEBqRGCAGZ1tQhx--3" target="wVPFlrEbLYKzu8900fMo-20">
          <mxGeometry relative="1" as="geometry">
            <mxPoint x="580" y="430" as="sourcePoint" />
            <mxPoint x="880" y="430" as="targetPoint" />
          </mxGeometry>
        </mxCell>
        <mxCell id="wVPFlrEbLYKzu8900fMo-20" value="Productions" style="shape=rhombus;perimeter=rhombusPerimeter;whiteSpace=wrap;html=1;align=center;" vertex="1" parent="1">
          <mxGeometry x="680" y="400" width="120" height="60" as="geometry" />
        </mxCell>
        <mxCell id="wVPFlrEbLYKzu8900fMo-22" value="ID" style="ellipse;whiteSpace=wrap;html=1;align=center;fontStyle=4;" vertex="1" parent="1">
          <mxGeometry x="300" y="490" width="100" height="40" as="geometry" />
        </mxCell>
        <mxCell id="wVPFlrEbLYKzu8900fMo-23" value="ID" style="ellipse;whiteSpace=wrap;html=1;align=center;fontStyle=4;" vertex="1" parent="1">
          <mxGeometry x="10" y="470" width="100" height="40" as="geometry" />
        </mxCell>
      </root>
    </mxGraphModel>
  </diagram>
</mxfile>
